<?xml version="1.0" encoding="UTF-8" standalone="no"?>
<svg
   xmlns:dc="http://purl.org/dc/elements/1.1/"
   xmlns:cc="http://creativecommons.org/ns#"
   xmlns:rdf="http://www.w3.org/1999/02/22-rdf-syntax-ns#"
   xmlns:svg="http://www.w3.org/2000/svg"
   xmlns="http://www.w3.org/2000/svg"
   xmlns:sodipodi="http://sodipodi.sourceforge.net/DTD/sodipodi-0.dtd"
   xmlns:inkscape="http://www.inkscape.org/namespaces/inkscape"
   id="svg856"
   version="1.1"
   viewBox="0 0 160.63525 126.06848"
   height="126.06848mm"
   width="160.63525mm"
   sodipodi:docname="logo.svg"
   inkscape:version="0.92.2 5c3e80d, 2017-08-06">
  <sodipodi:namedview
     pagecolor="#ffffff"
     bordercolor="#666666"
     borderopacity="1"
     objecttolerance="10"
     gridtolerance="10"
     guidetolerance="10"
     inkscape:pageopacity="0"
     inkscape:pageshadow="2"
     inkscape:window-width="1920"
     inkscape:window-height="1064"
     id="namedview11"
     showgrid="false"
     fit-margin-top="0"
     fit-margin-left="0"
     fit-margin-right="0"
     fit-margin-bottom="0"
     inkscape:zoom="0.5204856"
     inkscape:cx="151.37843"
     inkscape:cy="244.69957"
     inkscape:window-x="0"
     inkscape:window-y="16"
     inkscape:window-maximized="0"
     inkscape:current-layer="svg856" />
  <defs
     id="defs850" />
  <metadata
     id="metadata853">
    <rdf:RDF>
      <cc:Work
         rdf:about="">
        <dc:format>image/svg+xml</dc:format>
        <dc:type
           rdf:resource="http://purl.org/dc/dcmitype/StillImage" />
        <dc:title></dc:title>
      </cc:Work>
    </rdf:RDF>
  </metadata>
  <rect
     style="opacity:1;fill:#55fff5;fill-opacity:0.36633684;fill-rule:nonzero;stroke:none;stroke-width:1.58700001;stroke-miterlimit:4;stroke-dasharray:none;stroke-opacity:0.96666697"
     id="rect818"
     width="80.317627"
     height="63.034084"
     x="4.4408921e-16"
     y="63.034393" />
  <rect
     y="63.034393"
     x="80.317627"
     height="63.034084"
     width="80.317627"
     id="rect820"
     style="opacity:1;fill:#5587ff;fill-opacity:0.36633684;fill-rule:nonzero;stroke:none;stroke-width:1.58700001;stroke-miterlimit:4;stroke-dasharray:none;stroke-opacity:0.96666703" />
  <path
     style="opacity:1;fill:#55ff96;fill-opacity:0.36633684;fill-rule:nonzero;stroke:none;stroke-width:1.58700001;stroke-miterlimit:4;stroke-dasharray:none;stroke-opacity:0.96666715"
     d="M 9.8979761e-5,0 V 63.034394 H 80.317675 160.63525 V 0 H 80.317675 Z"
     id="rect822"
     inkscape:connector-curvature="0" />
  <g
     aria-label="Graduate Center"
     transform="scale(0.99277567,1.0072769)"
     style="font-style:normal;font-variant:normal;font-weight:normal;font-stretch:normal;font-size:16.26270294px;line-height:10.16422558px;font-family:'Bitstream Vera Sans';-inkscape-font-specification:'Bitstream Vera Sans, Normal';font-variant-ligatures:normal;font-variant-caps:normal;font-variant-numeric:normal;font-feature-settings:normal;text-align:start;letter-spacing:0px;word-spacing:0px;writing-mode:lr-tb;text-anchor:start;fill:#000000;fill-opacity:1;stroke:none;stroke-width:0.406569px;stroke-linecap:butt;stroke-linejoin:miter;stroke-opacity:1"
     id="text816">
    <path
       d="m 22.001216,35.660922 v -3.18425 h -2.620455 v -1.318169 h 4.20861 v 5.090036 q -0.929071,0.659084 -2.04872,1.000537 -1.119649,0.333513 -2.390172,0.333513 -2.779271,0 -4.351544,-1.619918 -1.564332,-1.627858 -1.564332,-4.52624 0,-2.906323 1.564332,-4.526241 1.572273,-1.627858 4.351544,-1.627858 1.159353,0 2.199594,0.285867 1.048182,0.285868 1.929608,0.841722 v 1.707266 Q 22.390314,27.362814 21.389777,26.981657 20.389239,26.6005 19.285472,26.6005 q -2.175772,0 -3.271599,1.214938 -1.087885,1.214938 -1.087885,3.620993 0,2.398113 1.087885,3.613051 1.095827,1.214938 3.271599,1.214938 0.849663,0 1.516687,-0.142933 0.667025,-0.150875 1.199057,-0.460565 z"
       style="font-style:normal;font-variant:normal;font-weight:normal;font-stretch:normal;font-size:16.26270294px;font-family:'Bitstream Vera Sans';-inkscape-font-specification:'Bitstream Vera Sans, Normal';font-variant-ligatures:normal;font-variant-caps:normal;font-variant-numeric:normal;font-feature-settings:normal;text-align:start;writing-mode:lr-tb;text-anchor:start;stroke-width:0.406569px"
       id="path891" />
    <path
       d="m 31.617492,29.824454 q -0.246164,-0.142934 -0.539973,-0.20646 -0.285867,-0.07147 -0.635261,-0.07147 -1.238761,0 -1.905786,0.809958 -0.659084,0.802018 -0.659084,2.310765 v 4.685056 h -1.469043 v -8.893665 h 1.469043 v 1.381694 q 0.460565,-0.809959 1.199057,-1.199057 0.738492,-0.397038 1.794614,-0.397038 0.150875,0 0.333513,0.02382 0.182638,0.01588 0.404979,0.05559 z"
       style="font-style:normal;font-variant:normal;font-weight:normal;font-stretch:normal;font-size:16.26270294px;font-family:'Bitstream Vera Sans';-inkscape-font-specification:'Bitstream Vera Sans, Normal';font-variant-ligatures:normal;font-variant-caps:normal;font-variant-numeric:normal;font-feature-settings:normal;text-align:start;writing-mode:lr-tb;text-anchor:start;stroke-width:0.406569px"
       id="path893" />
    <path
       d="m 37.207797,32.881651 q -1.770793,0 -2.453699,0.40498 -0.682906,0.404979 -0.682906,1.381694 0,0.778196 0.508209,1.238761 0.51615,0.452624 1.397576,0.452624 1.214938,0 1.945489,-0.857604 0.738492,-0.865544 0.738492,-2.294883 v -0.325572 z m 2.914263,-0.603499 v 5.074154 h -1.461102 v -1.349931 q -0.500268,0.809959 -1.246701,1.199057 -0.746433,0.381157 -1.826378,0.381157 -1.365813,0 -2.175772,-0.762314 -0.802018,-0.770255 -0.802018,-2.056661 0,-1.500806 1.000538,-2.26312 1.008478,-0.762314 3.001612,-0.762314 h 2.048719 v -0.142934 q 0,-1.008478 -0.667025,-1.556391 Q 37.334849,29.483 36.135792,29.483 q -0.762314,0 -1.484924,0.182638 -0.72261,0.182638 -1.389635,0.547914 V 28.86362 q 0.802018,-0.30969 1.556391,-0.460565 0.754374,-0.158815 1.469043,-0.158815 1.929608,0 2.882501,1.000537 0.952892,1.000538 0.952892,3.033375 z"
       style="font-style:normal;font-variant:normal;font-weight:normal;font-stretch:normal;font-size:16.26270294px;font-family:'Bitstream Vera Sans';-inkscape-font-specification:'Bitstream Vera Sans, Normal';font-variant-ligatures:normal;font-variant-caps:normal;font-variant-numeric:normal;font-feature-settings:normal;text-align:start;writing-mode:lr-tb;text-anchor:start;stroke-width:0.406569px"
       id="path895" />
    <path
       d="m 48.991903,29.808572 v -4.812108 h 1.461102 v 12.355842 h -1.461102 v -1.334049 q -0.460565,0.794077 -1.167294,1.183175 -0.698788,0.381157 -1.683444,0.381157 -1.611976,0 -2.628395,-1.286405 -1.008479,-1.286406 -1.008479,-3.38277 0,-2.096364 1.008479,-3.382769 1.016419,-1.286405 2.628395,-1.286405 0.984656,0 1.683444,0.389098 0.706729,0.381157 1.167294,1.175234 z m -4.978865,3.104842 q 0,1.611977 0.659084,2.533107 0.667025,0.913189 1.826378,0.913189 1.159353,0 1.826378,-0.913189 0.667025,-0.92113 0.667025,-2.533107 0,-1.611977 -0.667025,-2.525165 -0.667025,-0.92113 -1.826378,-0.92113 -1.159353,0 -1.826378,0.92113 -0.659084,0.913188 -0.659084,2.525165 z"
       style="font-style:normal;font-variant:normal;font-weight:normal;font-stretch:normal;font-size:16.26270294px;font-family:'Bitstream Vera Sans';-inkscape-font-specification:'Bitstream Vera Sans, Normal';font-variant-ligatures:normal;font-variant-caps:normal;font-variant-numeric:normal;font-feature-settings:normal;text-align:start;writing-mode:lr-tb;text-anchor:start;stroke-width:0.406569px"
       id="path897" />
    <path
       d="m 53.311682,33.842485 v -5.383844 h 1.461103 v 5.328258 q 0,1.262583 0.492328,1.897845 0.492327,0.627321 1.476983,0.627321 1.183175,0 1.866082,-0.754373 0.690847,-0.754374 0.690847,-2.056661 v -5.04239 h 1.461102 v 8.893665 h -1.461102 v -1.365813 q -0.532032,0.809959 -1.23876,1.206998 -0.698788,0.389098 -1.627859,0.389098 -1.532569,0 -2.326646,-0.952893 -0.794078,-0.952893 -0.794078,-2.787211 z"
       style="font-style:normal;font-variant:normal;font-weight:normal;font-stretch:normal;font-size:16.26270294px;font-family:'Bitstream Vera Sans';-inkscape-font-specification:'Bitstream Vera Sans, Normal';font-variant-ligatures:normal;font-variant-caps:normal;font-variant-numeric:normal;font-feature-settings:normal;text-align:start;writing-mode:lr-tb;text-anchor:start;stroke-width:0.406569px"
       id="path899" />
    <path
       d="m 67.827416,32.881651 q -1.770792,0 -2.453699,0.40498 -0.682906,0.404979 -0.682906,1.381694 0,0.778196 0.508209,1.238761 0.516151,0.452624 1.397576,0.452624 1.214939,0 1.94549,-0.857604 0.738492,-0.865544 0.738492,-2.294883 v -0.325572 z m 2.914264,-0.603499 v 5.074154 h -1.461102 v -1.349931 q -0.500269,0.809959 -1.246702,1.199057 -0.746432,0.381157 -1.826378,0.381157 -1.365812,0 -2.175771,-0.762314 -0.802018,-0.770255 -0.802018,-2.056661 0,-1.500806 1.000537,-2.26312 1.008478,-0.762314 3.001612,-0.762314 h 2.04872 v -0.142934 q 0,-1.008478 -0.667025,-1.556391 Q 67.954469,29.483 66.755412,29.483 q -0.762314,0 -1.484925,0.182638 -0.72261,0.182638 -1.389635,0.547914 V 28.86362 q 0.802018,-0.30969 1.556392,-0.460565 0.754373,-0.158815 1.469043,-0.158815 1.929607,0 2.8825,1.000537 0.952893,1.000538 0.952893,3.033375 z"
       style="font-style:normal;font-variant:normal;font-weight:normal;font-stretch:normal;font-size:16.26270294px;font-family:'Bitstream Vera Sans';-inkscape-font-specification:'Bitstream Vera Sans, Normal';font-variant-ligatures:normal;font-variant-caps:normal;font-variant-numeric:normal;font-feature-settings:normal;text-align:start;writing-mode:lr-tb;text-anchor:start;stroke-width:0.406569px"
       id="path901" />
    <path
       d="m 75.204393,25.933475 v 2.525166 h 3.009553 v 1.13553 h -3.009553 v 4.82799 q 0,1.087886 0.293809,1.397576 0.301749,0.30969 1.214938,0.30969 h 1.500806 v 1.222879 H 76.71314 q -1.691384,0 -2.334587,-0.627321 -0.643203,-0.635262 -0.643203,-2.302824 v -4.82799 h -1.072004 v -1.13553 h 1.072004 v -2.525166 z"
       style="font-style:normal;font-variant:normal;font-weight:normal;font-stretch:normal;font-size:16.26270294px;font-family:'Bitstream Vera Sans';-inkscape-font-specification:'Bitstream Vera Sans, Normal';font-variant-ligatures:normal;font-variant-caps:normal;font-variant-numeric:normal;font-feature-settings:normal;text-align:start;writing-mode:lr-tb;text-anchor:start;stroke-width:0.406569px"
       id="path903" />
    <path
       d="m 87.750817,32.540198 v 0.71467 h -6.717894 q 0.09529,1.508746 0.905249,2.302824 0.817899,0.786136 2.271061,0.786136 0.841722,0 1.627858,-0.20646 0.794077,-0.20646 1.572273,-0.61938 v 1.381694 q -0.786136,0.333513 -1.611977,0.50821 -0.82584,0.174697 -1.675503,0.174697 -2.128127,0 -3.374828,-1.238761 -1.238761,-1.23876 -1.238761,-3.351006 0,-2.183713 1.175234,-3.462177 1.183176,-1.286405 3.18425,-1.286405 1.794615,0 2.834856,1.159353 1.048182,1.151412 1.048182,3.136605 z M 86.289715,32.111396 Q 86.273834,30.91234 85.614749,30.19767 84.963606,29.483 83.883661,29.483 q -1.222879,0 -1.961371,0.690848 -0.730551,0.690847 -0.841722,1.945489 z"
       style="font-style:normal;font-variant:normal;font-weight:normal;font-stretch:normal;font-size:16.26270294px;font-family:'Bitstream Vera Sans';-inkscape-font-specification:'Bitstream Vera Sans, Normal';font-variant-ligatures:normal;font-variant-caps:normal;font-variant-numeric:normal;font-feature-settings:normal;text-align:start;writing-mode:lr-tb;text-anchor:start;stroke-width:0.406569px"
       id="path905" />
    <path
       d="m 104.26762,26.409921 v 1.691385 q -0.80996,-0.754374 -1.73109,-1.12759 -0.91319,-0.373216 -1.94549,-0.373216 -2.032834,0 -3.112779,1.246701 -1.079945,1.238761 -1.079945,3.58923 0,2.342528 1.079945,3.589229 1.079945,1.23876 3.112779,1.23876 1.0323,0 1.94549,-0.373216 0.92113,-0.373216 1.73109,-1.12759 v 1.675503 q -0.84172,0.571736 -1.78667,0.857604 -0.93701,0.285868 -1.9852,0.285868 -2.691917,0 -4.240368,-1.64374 -1.548451,-1.651681 -1.548451,-4.502418 0,-2.858679 1.548451,-4.502419 1.548451,-1.65168 4.240368,-1.65168 1.06407,0 2.00108,0.285867 0.94495,0.277927 1.77079,0.841722 z"
       style="font-style:normal;font-variant:normal;font-weight:normal;font-stretch:normal;font-size:16.26270294px;font-family:'Bitstream Vera Sans';-inkscape-font-specification:'Bitstream Vera Sans, Normal';font-variant-ligatures:normal;font-variant-caps:normal;font-variant-numeric:normal;font-feature-settings:normal;text-align:start;writing-mode:lr-tb;text-anchor:start;stroke-width:0.406569px"
       id="path907" />
    <path
       d="m 114.30476,32.540198 v 0.71467 h -6.71789 q 0.0953,1.508746 0.90525,2.302824 0.8179,0.786136 2.27106,0.786136 0.84172,0 1.62786,-0.20646 0.79408,-0.20646 1.57227,-0.61938 v 1.381694 q -0.78614,0.333513 -1.61198,0.50821 -0.82584,0.174697 -1.6755,0.174697 -2.12813,0 -3.37483,-1.238761 -1.23876,-1.23876 -1.23876,-3.351006 0,-2.183713 1.17524,-3.462177 1.18317,-1.286405 3.18425,-1.286405 1.79461,0 2.83485,1.159353 1.04818,1.151412 1.04818,3.136605 z m -1.4611,-0.428802 q -0.0159,-1.199056 -0.67496,-1.913726 -0.65115,-0.71467 -1.73109,-0.71467 -1.22288,0 -1.96137,0.690848 -0.73055,0.690847 -0.84172,1.945489 z"
       style="font-style:normal;font-variant:normal;font-weight:normal;font-stretch:normal;font-size:16.26270294px;font-family:'Bitstream Vera Sans';-inkscape-font-specification:'Bitstream Vera Sans, Normal';font-variant-ligatures:normal;font-variant-caps:normal;font-variant-numeric:normal;font-feature-settings:normal;text-align:start;writing-mode:lr-tb;text-anchor:start;stroke-width:0.406569px"
       id="path909" />
    <path
       d="m 124.09573,31.984344 v 5.367962 h -1.4611 v -5.320317 q 0,-1.262583 -0.49233,-1.889904 -0.49232,-0.627322 -1.47698,-0.627322 -1.18317,0 -1.86608,0.754374 -0.68291,0.754373 -0.68291,2.05666 v 5.026509 h -1.46904 v -8.893665 h 1.46904 v 1.381694 q 0.52409,-0.802018 1.23082,-1.199057 0.71467,-0.397038 1.64374,-0.397038 1.53257,0 2.31871,0.952893 0.78613,0.944952 0.78613,2.787211 z"
       style="font-style:normal;font-variant:normal;font-weight:normal;font-stretch:normal;font-size:16.26270294px;font-family:'Bitstream Vera Sans';-inkscape-font-specification:'Bitstream Vera Sans, Normal';font-variant-ligatures:normal;font-variant-caps:normal;font-variant-numeric:normal;font-feature-settings:normal;text-align:start;writing-mode:lr-tb;text-anchor:start;stroke-width:0.406569px"
       id="path911" />
    <path
       d="m 128.4711,25.933475 v 2.525166 h 3.00955 v 1.13553 h -3.00955 v 4.82799 q 0,1.087886 0.29381,1.397576 0.30175,0.30969 1.21494,0.30969 h 1.5008 v 1.222879 h -1.5008 q -1.69139,0 -2.33459,-0.627321 -0.6432,-0.635262 -0.6432,-2.302824 v -4.82799 h -1.07201 v -1.13553 h 1.07201 v -2.525166 z"
       style="font-style:normal;font-variant:normal;font-weight:normal;font-stretch:normal;font-size:16.26270294px;font-family:'Bitstream Vera Sans';-inkscape-font-specification:'Bitstream Vera Sans, Normal';font-variant-ligatures:normal;font-variant-caps:normal;font-variant-numeric:normal;font-feature-settings:normal;text-align:start;writing-mode:lr-tb;text-anchor:start;stroke-width:0.406569px"
       id="path913" />
    <path
       d="m 141.01752,32.540198 v 0.71467 h -6.7179 q 0.0953,1.508746 0.90525,2.302824 0.8179,0.786136 2.27106,0.786136 0.84173,0 1.62786,-0.20646 0.79408,-0.20646 1.57227,-0.61938 v 1.381694 q -0.78613,0.333513 -1.61197,0.50821 -0.82584,0.174697 -1.67551,0.174697 -2.12812,0 -3.37482,-1.238761 -1.23876,-1.23876 -1.23876,-3.351006 0,-2.183713 1.17523,-3.462177 1.18318,-1.286405 3.18425,-1.286405 1.79461,0 2.83486,1.159353 1.04818,1.151412 1.04818,3.136605 z m -1.4611,-0.428802 q -0.0159,-1.199056 -0.67497,-1.913726 -0.65114,-0.71467 -1.73109,-0.71467 -1.22288,0 -1.96137,0.690848 -0.73055,0.690847 -0.84172,1.945489 z"
       style="font-style:normal;font-variant:normal;font-weight:normal;font-stretch:normal;font-size:16.26270294px;font-family:'Bitstream Vera Sans';-inkscape-font-specification:'Bitstream Vera Sans, Normal';font-variant-ligatures:normal;font-variant-caps:normal;font-variant-numeric:normal;font-feature-settings:normal;text-align:start;writing-mode:lr-tb;text-anchor:start;stroke-width:0.406569px"
       id="path915" />
    <path
       d="m 148.56919,29.824454 q -0.24616,-0.142934 -0.53997,-0.20646 -0.28587,-0.07147 -0.63526,-0.07147 -1.23876,0 -1.90579,0.809958 -0.65908,0.802018 -0.65908,2.310765 v 4.685056 h -1.46905 v -8.893665 h 1.46905 v 1.381694 q 0.46056,-0.809959 1.19905,-1.199057 0.73849,-0.397038 1.79462,-0.397038 0.15087,0 0.33351,0.02382 0.18264,0.01588 0.40498,0.05559 z"
       style="font-style:normal;font-variant:normal;font-weight:normal;font-stretch:normal;font-size:16.26270294px;font-family:'Bitstream Vera Sans';-inkscape-font-specification:'Bitstream Vera Sans, Normal';font-variant-ligatures:normal;font-variant-caps:normal;font-variant-numeric:normal;font-feature-settings:normal;text-align:start;writing-mode:lr-tb;text-anchor:start;stroke-width:0.406569px"
       id="path917" />
  </g>
  <g
     aria-label="Some"
     transform="scale(0.99277567,1.0072769)"
     style="font-style:normal;font-variant:normal;font-weight:normal;font-stretch:normal;font-size:16.26270294px;line-height:10.16422558px;font-family:'Bitstream Vera Sans';-inkscape-font-specification:'Bitstream Vera Sans, Normal';font-variant-ligatures:normal;font-variant-caps:normal;font-variant-numeric:normal;font-feature-settings:normal;text-align:start;letter-spacing:0px;word-spacing:0px;writing-mode:lr-tb;text-anchor:start;fill:#000000;fill-opacity:1;stroke:none;stroke-width:0.406569px;stroke-linecap:butt;stroke-linejoin:miter;stroke-opacity:1"
     id="text820">
    <path
       d="m 25.990816,88.321755 v 1.564332 q -0.913189,-0.436742 -1.723147,-0.651143 -0.809959,-0.214401 -1.564333,-0.214401 -1.310227,0 -2.024897,0.508209 -0.706728,0.50821 -0.706728,1.445221 0,0.786136 0.468505,1.191116 0.476446,0.397039 1.794615,0.643202 l 0.968774,0.19852 q 1.794615,0.341453 2.644277,1.206997 0.857604,0.857604 0.857604,2.302824 0,1.723148 -1.159353,2.612515 -1.151412,0.889363 -3.382769,0.889363 -0.841722,0 -1.794615,-0.190575 -0.944952,-0.190579 -1.961371,-0.563795 v -1.651681 q 0.976715,0.547913 1.913727,0.82584 0.937011,0.277928 1.842259,0.277928 1.373754,0 2.120186,-0.539973 0.746433,-0.539973 0.746433,-1.54051 0,-0.873485 -0.539973,-1.365813 -0.532031,-0.492328 -1.754911,-0.738492 l -0.976715,-0.190578 q -1.794614,-0.357335 -2.596632,-1.119649 -0.802018,-0.762315 -0.802018,-2.120187 0,-1.572273 1.103767,-2.477521 1.111708,-0.905248 3.057198,-0.905248 0.833781,0 1.699325,0.150875 0.865544,0.150874 1.770792,0.452624 z"
       style="font-style:normal;font-variant:normal;font-weight:normal;font-stretch:normal;font-size:16.26270294px;font-family:'Bitstream Vera Sans';-inkscape-font-specification:'Bitstream Vera Sans, Normal';font-variant-ligatures:normal;font-variant-caps:normal;font-variant-numeric:normal;font-feature-settings:normal;text-align:start;writing-mode:lr-tb;text-anchor:start;stroke-width:0.406569px"
       id="path871" />
    <path
       d="m 32.589599,91.918925 q -1.175235,0 -1.858141,0.92113 -0.682907,0.913188 -0.682907,2.509284 0,1.596095 0.674966,2.517225 0.682906,0.913189 1.866082,0.913189 1.167293,0 1.8502,-0.92113 0.682906,-0.92113 0.682906,-2.509284 0,-1.580214 -0.682906,-2.501344 -0.682907,-0.92907 -1.8502,-0.92907 z m 0,-1.238761 q 1.905785,0 2.993671,1.238761 1.087886,1.238761 1.087886,3.430414 0,2.183712 -1.087886,3.430414 -1.087886,1.238757 -2.993671,1.238757 -1.913727,0 -3.001613,-1.238757 -1.079945,-1.246702 -1.079945,-3.430414 0,-2.191653 1.079945,-3.430414 1.087886,-1.238761 3.001613,-1.238761 z"
       style="font-style:normal;font-variant:normal;font-weight:normal;font-stretch:normal;font-size:16.26270294px;font-family:'Bitstream Vera Sans';-inkscape-font-specification:'Bitstream Vera Sans, Normal';font-variant-ligatures:normal;font-variant-caps:normal;font-variant-numeric:normal;font-feature-settings:normal;text-align:start;writing-mode:lr-tb;text-anchor:start;stroke-width:0.406569px"
       id="path873" />
    <path
       d="m 46.009505,92.601831 q 0.547913,-0.984655 1.310227,-1.453161 0.762315,-0.468506 1.794615,-0.468506 1.389635,0 2.144009,0.976715 0.754373,0.968775 0.754373,2.763389 v 5.367963 h -1.469043 v -5.320318 q 0,-1.278464 -0.452624,-1.897845 -0.452624,-0.61938 -1.381694,-0.61938 -1.135531,0 -1.794615,0.754373 -0.659084,0.754374 -0.659084,2.056661 v 5.026509 h -1.469043 v -5.320318 q 0,-1.286405 -0.452624,-1.897845 -0.452624,-0.61938 -1.397576,-0.61938 -1.119649,0 -1.778733,0.762314 -0.659084,0.754374 -0.659084,2.04872 v 5.026509 h -1.469043 v -8.893666 h 1.469043 v 1.381695 q 0.500268,-0.8179 1.199056,-1.206998 0.698788,-0.389098 1.659622,-0.389098 0.968774,0 1.64374,0.492328 0.682906,0.492328 1.008478,1.429339 z"
       style="font-style:normal;font-variant:normal;font-weight:normal;font-stretch:normal;font-size:16.26270294px;font-family:'Bitstream Vera Sans';-inkscape-font-specification:'Bitstream Vera Sans, Normal';font-variant-ligatures:normal;font-variant-caps:normal;font-variant-numeric:normal;font-feature-settings:normal;text-align:start;writing-mode:lr-tb;text-anchor:start;stroke-width:0.406569px"
       id="path875" />
    <path
       d="m 62.542194,94.976123 v 0.714669 H 55.8243 q 0.09529,1.508747 0.905249,2.302824 0.817899,0.786137 2.271061,0.786137 0.841722,0 1.627858,-0.20646 0.794077,-0.20646 1.572273,-0.619381 v 1.381695 q -0.786136,0.333512 -1.611977,0.508209 -0.82584,0.174694 -1.675503,0.174694 -2.128127,0 -3.374828,-1.238757 -1.238761,-1.238761 -1.238761,-3.351006 0,-2.183713 1.175234,-3.462177 1.183176,-1.286406 3.18425,-1.286406 1.794615,0 2.834856,1.159353 1.048182,1.151412 1.048182,3.136606 z m -1.461102,-0.428802 q -0.01588,-1.199057 -0.674966,-1.913727 -0.651143,-0.714669 -1.731088,-0.714669 -1.222879,0 -1.961371,0.690847 -0.730551,0.690847 -0.841722,1.94549 z"
       style="font-style:normal;font-variant:normal;font-weight:normal;font-stretch:normal;font-size:16.26270294px;font-family:'Bitstream Vera Sans';-inkscape-font-specification:'Bitstream Vera Sans, Normal';font-variant-ligatures:normal;font-variant-caps:normal;font-variant-numeric:normal;font-feature-settings:normal;text-align:start;writing-mode:lr-tb;text-anchor:start;stroke-width:0.406569px"
       id="path877" />
  </g>
  <g
     aria-label="where"
     transform="scale(0.99277567,1.0072769)"
     style="font-style:normal;font-variant:normal;font-weight:normal;font-stretch:normal;font-size:16.26270294px;line-height:10.16422558px;font-family:'Bitstream Vera Sans';-inkscape-font-specification:'Bitstream Vera Sans, Normal';font-variant-ligatures:normal;font-variant-caps:normal;font-variant-numeric:normal;font-feature-settings:normal;text-align:start;letter-spacing:0px;word-spacing:0px;writing-mode:lr-tb;text-anchor:start;fill:#000000;fill-opacity:1;stroke:none;stroke-width:0.406569px;stroke-linecap:butt;stroke-linejoin:miter;stroke-opacity:1"
     id="text824">
    <path
       d="m 97.129722,91.037502 h 1.461102 l 1.826376,6.940235 1.81844,-6.940235 h 1.72315 l 1.82637,6.940235 1.81844,-6.940235 h 1.4611 l -2.32664,8.893666 h -1.72315 l -1.91373,-7.28963 -1.92166,7.28963 h -1.723152 z"
       style="font-style:normal;font-variant:normal;font-weight:normal;font-stretch:normal;font-size:16.26270294px;font-family:'Bitstream Vera Sans';-inkscape-font-specification:'Bitstream Vera Sans, Normal';font-variant-ligatures:normal;font-variant-caps:normal;font-variant-numeric:normal;font-feature-settings:normal;text-align:start;writing-mode:lr-tb;text-anchor:start;stroke-width:0.406569px"
       id="path880" />
    <path
       d="m 118.68098,94.563205 v 5.367963 h -1.4611 V 94.61085 q 0,-1.262583 -0.49233,-1.889904 -0.49233,-0.627321 -1.47698,-0.627321 -1.18318,0 -1.86609,0.754373 -0.6829,0.754374 -0.6829,2.05666 v 5.02651 h -1.46904 V 87.575325 h 1.46904 v 4.843871 q 0.52409,-0.802018 1.23082,-1.199056 0.71467,-0.397039 1.64374,-0.397039 1.53257,0 2.3187,0.952893 0.78614,0.944952 0.78614,2.787211 z"
       style="font-style:normal;font-variant:normal;font-weight:normal;font-stretch:normal;font-size:16.26270294px;font-family:'Bitstream Vera Sans';-inkscape-font-specification:'Bitstream Vera Sans, Normal';font-variant-ligatures:normal;font-variant-caps:normal;font-variant-numeric:normal;font-feature-settings:normal;text-align:start;writing-mode:lr-tb;text-anchor:start;stroke-width:0.406569px"
       id="path882" />
    <path
       d="m 129.21839,95.119059 v 0.71467 h -6.7179 q 0.0953,1.508747 0.90525,2.302824 0.8179,0.786136 2.27106,0.786136 0.84172,0 1.62786,-0.20646 0.79408,-0.20646 1.57227,-0.61938 v 1.381695 q -0.78613,0.333512 -1.61197,0.508209 -0.82584,0.174697 -1.67551,0.174697 -2.12812,0 -3.37483,-1.238761 -1.23876,-1.23876 -1.23876,-3.351006 0,-2.183712 1.17524,-3.462177 1.18317,-1.286405 3.18425,-1.286405 1.79461,0 2.83485,1.159353 1.04819,1.151412 1.04819,3.136605 z m -1.46111,-0.428802 q -0.0159,-1.199056 -0.67496,-1.913726 -0.65115,-0.714669 -1.73109,-0.714669 -1.22288,0 -1.96137,0.690847 -0.73055,0.690847 -0.84172,1.945489 z"
       style="font-style:normal;font-variant:normal;font-weight:normal;font-stretch:normal;font-size:16.26270294px;font-family:'Bitstream Vera Sans';-inkscape-font-specification:'Bitstream Vera Sans, Normal';font-variant-ligatures:normal;font-variant-caps:normal;font-variant-numeric:normal;font-feature-settings:normal;text-align:start;writing-mode:lr-tb;text-anchor:start;stroke-width:0.406569px"
       id="path884" />
    <path
       d="m 136.77006,92.403315 q -0.24616,-0.142934 -0.53997,-0.20646 -0.28587,-0.07147 -0.63526,-0.07147 -1.23876,0 -1.90579,0.809959 -0.65908,0.802018 -0.65908,2.310765 v 4.685056 h -1.46905 v -8.893666 h 1.46905 v 1.381694 q 0.46056,-0.809958 1.19905,-1.199056 0.7385,-0.397039 1.79462,-0.397039 0.15087,0 0.33351,0.02382 0.18264,0.01588 0.40498,0.05559 z"
       style="font-style:normal;font-variant:normal;font-weight:normal;font-stretch:normal;font-size:16.26270294px;font-family:'Bitstream Vera Sans';-inkscape-font-specification:'Bitstream Vera Sans, Normal';font-variant-ligatures:normal;font-variant-caps:normal;font-variant-numeric:normal;font-feature-settings:normal;text-align:start;writing-mode:lr-tb;text-anchor:start;stroke-width:0.406569px"
       id="path886" />
    <path
       d="m 145.59226,95.119059 v 0.71467 h -6.71789 q 0.0953,1.508747 0.90524,2.302824 0.8179,0.786136 2.27107,0.786136 0.84172,0 1.62785,-0.20646 0.79408,-0.20646 1.57228,-0.61938 v 1.381695 q -0.78614,0.333512 -1.61198,0.508209 -0.82584,0.174697 -1.6755,0.174697 -2.12813,0 -3.37483,-1.238761 -1.23876,-1.23876 -1.23876,-3.351006 0,-2.183712 1.17523,-3.462177 1.18318,-1.286405 3.18425,-1.286405 1.79462,0 2.83486,1.159353 1.04818,1.151412 1.04818,3.136605 z m -1.4611,-0.428802 q -0.0159,-1.199056 -0.67497,-1.913726 -0.65114,-0.714669 -1.73109,-0.714669 -1.22288,0 -1.96137,0.690847 -0.73055,0.690847 -0.84172,1.945489 z"
       style="font-style:normal;font-variant:normal;font-weight:normal;font-stretch:normal;font-size:16.26270294px;font-family:'Bitstream Vera Sans';-inkscape-font-specification:'Bitstream Vera Sans, Normal';font-variant-ligatures:normal;font-variant-caps:normal;font-variant-numeric:normal;font-feature-settings:normal;text-align:start;writing-mode:lr-tb;text-anchor:start;stroke-width:0.406569px"
       id="path888" />
  </g>
</svg>
